PathFileType	4	(X/Y/Z)	C:\Users\WrightLab\Desktop\Jo\P3_27.trc
DataRate	CameraRate	NumFrames	NumMarkers	Units	OrigDataRate	OrigDataStartFrame	OrigNumFrames
100.00	100.00	       6	19	mm	100.00	138	       549
Frame#	Time	Headset_Front			Headset_Back			Headset_Left			Headset_Right			Left_Shoulder			Right_Shoulder			Sternum			C7			Left Elbow			Right Elbow			Left Wrist			Right Wrist			Left ASIS			Right ASIS			S2			Left Knee			Right Knee			Left Ankle			Right Ankle			
		X1	Y1	Z1	X2	Y2	Z2	X3	Y3	Z3	X4	Y4	Z4	X5	Y5	Z5	X6	Y6	Z6	X7	Y7	Z7	X8	Y8	Z8	X9	Y9	Z9	X10	Y10	Z10	X11	Y11	Z11	X12	Y12	Z12	X13	Y13	Z13	X14	Y14	Z14	X15	Y15	Z15	X16	Y16	Z16	X17	Y17	Z17	X18	Y18	Z18	X19	Y19	Z19	

138	1.370	-154.83043	1451.13269	660.68091	-56.76382	1645.56775	870.27521	-193.48112	1562.15881	834.30396	-23.63453	1520.14795	686.00586	-221.85825	1358.54395	959.70325	122.42739	1364.16931	842.46967	-95.58642	1239.72424	784.07098	-31.38191	1419.67883	939.41461	-257.80908	1021.19446	1015.46143	211.54013	1019.16913	841.71405	-271.69870	831.27527	929.11707	148.48396	840.66888	715.72479	-175.18648	873.43335	856.62061				12.50264	964.67535	1014.31726	-104.22359	455.19879	907.76160	41.71641	492.24271	671.19366	-34.49298	135.13916	964.31592	121.95258	205.60426	838.26099	
139	1.380	-157.44946	1450.70715	652.27435	-59.40890	1645.08997	861.98254	-196.28282	1561.54895	826.22375	-26.24761	1518.94702	678.58807	-223.79166	1358.06787	952.38007	119.20670	1363.33289	832.29590	-98.81377	1238.85144	776.21674	-33.33391	1419.03503	930.90912	-261.26443	1020.64880	1006.55109	208.73517	1018.57513	831.32697	-275.78476	831.41119	917.43506	144.16118	839.74469	705.65869	-178.12616	872.25134	849.33459				11.26677	964.30499	1004.55573	-104.71407	454.30930	904.39673	35.86420	493.24435	660.20605	-34.48688	135.00900	963.67432	113.36192	196.98375	811.45129	
140	1.390	-159.91602	1450.62219	643.70978	-62.35865	1644.30078	853.86829	-198.61523	1560.90222	817.44952	-28.65087	1518.59167	669.67188	-225.39601	1357.27063	945.31244	116.51981	1362.95947	822.19788	-102.24853	1237.69360	768.82501	-35.04898	1418.53210	922.30469	-265.80334	1019.95819	997.24188	205.54662	1018.09546	821.52374	-280.40479	832.63861	906.08759	140.40993	838.46448	696.18707	-181.02966	872.39594	842.30493				10.31206	963.61157	997.62177	-105.48849	453.70673	901.79291	30.05659	493.67282	650.11267	-34.26958	134.89310	962.32794	104.57732	189.13980	784.67450	
141	1.400	-162.54118	1449.64795	635.07922	-64.55499	1643.13770	845.54791	-201.59557	1560.51965	809.13092	-31.25889	1517.34790	662.29944	-227.49446	1356.79517	938.03619	113.67368	1361.64600	812.61865	-106.41261	1236.67542	761.04077	-37.60649	1417.66223	913.55383	-270.17618	1019.49640	987.75269	202.46185	1016.72894	810.43512	-285.00699	832.93909	893.71240	136.30107	837.71167	686.54718	-183.72797	870.92969	835.69678				8.24546	962.47119	987.41663	-105.78728	453.35629	898.40833	24.69536	493.57660	639.85919	-34.36562	135.07259	961.73492	95.25330	180.48480	757.72205	
142	1.410	-165.05663	1449.32751	626.74084	-67.10879	1642.14319	837.30524	-204.04390	1559.24084	800.43738	-33.98898	1516.85437	651.80951	-229.31099	1356.22144	930.86865	110.33649	1360.60986	803.04614	-108.96424	1235.41711	753.20874	-39.69830	1416.63782	905.00562	-274.48752	1018.43951	976.82477	199.03217	1015.38947	800.18518	-289.21146	833.44971	881.95923	131.67079	837.07343	675.74799	-184.79427	869.92249	830.60358				7.91203	961.83978	978.23108	-107.01748	453.21603	895.53119	20.08089	493.25778	631.02441	-34.41642	135.06773	961.35437	84.62383	172.79436	729.88074	
143	1.420	-167.66208	1448.28760	618.15582	-70.11688	1641.48438	829.10046	-206.66539	1558.53540	792.21863	-36.14698	1515.60461	646.18823	-231.31052	1355.29932	923.75208	107.64481	1359.35938	792.90436	-112.34509	1234.19116	745.18372	-42.40362	1415.89856	896.18951	-278.92429	1017.66943	967.08209	196.24158	1013.93628	789.47766	-294.77158	834.31879	870.38000	127.68143	835.73914	665.42352	-187.16069	869.11835	824.07263				7.40279	961.12122	969.73511	-107.65217	451.96182	892.12622	15.94919	491.85693	622.96619	-34.59101	135.23329	960.82721	74.31660	164.58649	702.37646	
